<svg width="32" height="32" viewBox="0 0 32 32" fill="none" xmlns="http://www.w3.org/2000/svg">
<path d="M31 21.91C30.1283 21.91 29.2567 22.1617 28.5 22.6667C27.7597 23.1603 26.8898 23.4237 26 23.4237C25.1102 23.4237 24.2403 23.1603 23.5 22.6667C22.7597 22.1731 21.8898 21.9097 21 21.9097C20.1102 21.9097 19.2403 22.1731 18.5 22.6667C17.7597 23.1603 16.8898 23.4237 16 23.4237C15.1102 23.4237 14.2403 23.1603 13.5 22.6667C12.7597 22.1731 11.8898 21.9097 11 21.9097C10.1102 21.9097 9.24033 22.1731 8.5 22.6667C7.75967 23.1603 6.88979 23.4237 6 23.4237C5.11021 23.4237 4.24033 23.1603 3.5 22.6667C2.75976 22.1729 1.8898 21.9096 1 21.91M11 6V9.33333M16 6V9.33333M21 6V9.33333M11 1H11.0167M16 1H16.0167M21 1H21.0167M31 31V19.3333C31 18.4493 30.6488 17.6014 30.0237 16.9763C29.3986 16.3512 28.5507 16 27.6667 16H4.33333C3.44928 16 2.60143 16.3512 1.97631 16.9763C1.35119 17.6014 1 18.4493 1 19.3333V31H31ZM26 16V12.6667C26 11.7826 25.6488 10.9348 25.0237 10.3096C24.3986 9.68452 23.5507 9.33333 22.6667 9.33333H9.33333C8.44928 9.33333 7.60143 9.68452 6.97631 10.3096C6.35119 10.9348 6 11.7826 6 12.6667V16H26Z" stroke="#4338CA" stroke-width="2" stroke-linecap="round" stroke-linejoin="round"/>
</svg>
