<svg width="34" height="30" viewBox="0 0 34 30" fill="none" xmlns="http://www.w3.org/2000/svg">
<path d="M29.38 20.7133C28.9147 20.248 28.322 19.9307 27.6767 19.8017L23.6983 19.0067C21.5177 18.5706 19.254 18.8738 17.265 19.8683L16.735 20.1317C14.746 21.1262 12.4823 21.4294 10.3017 20.9933L7.08334 20.35C6.54534 20.2425 5.98913 20.2695 5.46406 20.4285C4.93898 20.5876 4.46128 20.8737 4.07334 21.2617M10.3333 1.66667H23.6667L22 3.33333V11.9533C22.0002 12.8373 22.3515 13.685 22.9767 14.31L31.31 22.6433C33.41 24.7433 31.9217 28.3333 28.9517 28.3333H5.04667C2.07667 28.3333 0.590003 24.7433 2.69 22.6433L11.0233 14.31C11.6485 13.685 11.9998 12.8373 12 11.9533V3.33333L10.3333 1.66667Z" stroke="#4338CA" stroke-width="2" stroke-linecap="round" stroke-linejoin="round"/>
</svg>
